<?xml version="1.0" standalone="no"?>
<!DOCTYPE svg PUBLIC "-//W3C//DTD SVG 20010904//EN"
 "http://www.w3.org/TR/2001/REC-SVG-20010904/DTD/svg10.dtd">
<svg version="1.0" xmlns="http://www.w3.org/2000/svg"
 width="700.000000pt" height="700.000000pt" viewBox="0 0 700.000000 700.000000"
 preserveAspectRatio="xMidYMid meet">
<metadata>
Created by potrace 1.11, written by Peter Selinger 2001-2013
</metadata>
<g transform="translate(0.000000,700.000000) scale(0.100000,-0.100000)"
fill="#000000" stroke="none">
<path d="M0 3500 l0 -3500 3500 0 3500 0 0 3500 0 3500 -3500 0 -3500 0 0
-3500z m3180 10 c351 -25 624 -143 845 -365 178 -178 287 -389 342 -661 24
-124 25 -423 0 -547 -118 -587 -545 -970 -1147 -1026 -65 -6 -341 -11 -632
-11 l-518 0 0 1310 0 1310 493 0 c270 0 548 -5 617 -10z m2565 -750 c104 -24
169 -50 250 -99 72 -44 165 -119 165 -133 0 -15 -121 -177 -148 -198 -39 -31
-78 -25 -172 29 -113 65 -182 85 -295 84 -314 -1 -479 -234 -462 -653 3 -74
13 -164 22 -199 38 -155 127 -276 243 -333 65 -32 71 -33 197 -33 120 0 134 2
186 26 31 15 89 50 129 78 60 42 81 51 115 51 49 0 62 -11 151 -126 l58 -77
-70 -66 c-179 -167 -391 -238 -684 -228 -121 3 -158 9 -225 31 -312 102 -514
363 -571 736 -57 384 72 770 322 958 212 159 512 217 789 152z"/>
<path d="M2560 2210 l0 -922 338 4 c333 4 338 5 427 32 121 37 214 88 296 164
179 166 269 406 269 722 0 470 -208 787 -585 891 -73 20 -109 22 -412 26
l-333 5 0 -922z"/>
</g>
</svg>
